<?xml version="1.0" standalone="no"?>
<!DOCTYPE svg PUBLIC "-//W3C//DTD SVG 20010904//EN"
 "http://www.w3.org/TR/2001/REC-SVG-20010904/DTD/svg10.dtd">
<svg version="1.0" xmlns="http://www.w3.org/2000/svg"
 width="8127.000000pt" height="1500.000000pt" viewBox="0 0 8127.000000 1500.000000"
 preserveAspectRatio="xMidYMid meet">

<g transform="translate(0.000000,1500.000000) scale(0.100000,-0.100000)"
fill="#000000" stroke="none">
<path d="M6780 13451 c-8 -5 -44 -12 -80 -16 -111 -12 -296 -58 -415 -103
-314 -118 -561 -276 -790 -507 -129 -130 -271 -307 -308 -385 -4 -8 -21 -37
-37 -65 -80 -132 -200 -421 -200 -482 0 -12 -4 -24 -9 -28 -6 -3 -13 -27 -16
-53 -4 -26 -11 -61 -16 -78 -28 -92 -50 -401 -39 -544 21 -264 39 -355 112
-575 37 -111 45 -131 116 -275 164 -332 440 -638 757 -841 93 -59 102 -64 160
-94 28 -14 57 -30 65 -34 8 -5 33 -17 55 -26 22 -10 48 -22 58 -27 20 -10 211
-73 282 -93 186 -52 487 -82 663 -65 199 18 276 28 305 39 16 6 39 11 52 11
12 0 47 7 76 16 96 29 173 54 194 63 11 5 45 19 75 31 69 28 225 104 265 130
17 11 37 23 45 27 130 62 442 342 572 513 294 389 448 844 448 1322 0 233 -39
467 -117 698 -31 92 -40 114 -114 265 -130 266 -319 503 -554 693 -38 31 -76
62 -83 69 -53 50 -330 207 -461 262 -143 59 -297 102 -501 138 -106 19 -534
29 -560 14z m395 -756 c195 -24 318 -62 484 -148 186 -96 365 -250 488 -419
52 -71 71 -103 122 -198 71 -133 125 -326 141 -505 14 -166 -12 -406 -61 -545
-81 -233 -182 -395 -349 -561 -158 -156 -347 -273 -535 -333 -155 -49 -181
-54 -312 -67 -213 -21 -462 11 -628 81 -189 79 -334 171 -464 295 -257 245
-400 540 -433 888 -39 422 108 818 418 1123 123 121 211 183 364 258 157 76
270 110 445 131 139 17 183 17 320 0z"/>
<path d="M57120 7880 l0 -4530 560 0 560 0 0 385 c0 311 3 385 13 385 7 0 32
-28 55 -62 153 -231 480 -496 762 -619 455 -197 1130 -242 1710 -113 703 157
1263 580 1589 1204 184 353 283 700 332 1170 16 155 24 1422 10 1718 -12 267
-38 489 -77 682 -108 525 -323 948 -644 1270 -415 416 -967 626 -1720 656
-513 20 -1095 -111 -1445 -326 -172 -105 -355 -278 -479 -451 l-66 -92 0 1626
0 1627 -580 0 -580 0 0 -4530z m3180 1106 c334 -61 615 -219 819 -461 267
-314 404 -707 441 -1260 13 -198 13 -1048 0 -1250 -41 -624 -214 -1060 -544
-1372 -221 -209 -490 -327 -828 -363 -259 -27 -550 3 -793 82 -121 39 -361
157 -475 233 -303 204 -506 464 -603 770 -48 154 -49 165 -45 1235 4 1002 4
1005 27 1105 75 330 204 569 436 801 273 274 597 432 1000 489 129 18 446 13
565 -9z"/>
<path d="M71010 7880 l0 -4530 580 0 580 0 0 4530 0 4530 -580 0 -580 0 0
-4530z"/>
<path d="M15110 7670 l0 -4320 1538 0 c1747 0 1873 4 2292 76 1023 175 1745
652 2188 1445 247 441 388 930 459 1589 16 147 18 277 18 1210 0 936 -2 1062
-18 1210 -45 417 -121 769 -233 1076 -399 1103 -1253 1776 -2504 1974 -355 56
-280 54 -2077 57 l-1663 4 0 -4321z m3250 3257 c633 -93 1047 -284 1386 -640
321 -336 532 -811 613 -1382 39 -275 43 -392 38 -1330 -3 -857 -5 -907 -25
-1055 -57 -404 -143 -699 -287 -978 -108 -211 -227 -373 -387 -528 -341 -330
-773 -513 -1393 -590 -109 -14 -281 -17 -1067 -21 l-938 -4 0 3276 0 3276 973
-4 c846 -3 987 -6 1087 -20z"/>
<path d="M43990 7670 l0 -4320 2665 0 2665 0 0 510 0 510 -2070 0 -2070 0 0
3810 0 3810 -595 0 -595 0 0 -4320z"/>
<path d="M76160 9245 l0 -1265 -1240 0 -1240 0 0 -505 0 -505 1240 0 1240 0 0
-1350 0 -1350 540 0 540 0 0 1350 0 1350 1240 0 1240 0 0 505 0 505 -1240 0
-1240 0 0 1265 0 1265 -540 0 -540 0 0 -1265z"/>
<path d="M25595 10024 c-631 -42 -1145 -222 -1590 -557 -114 -86 -349 -324
-438 -444 -299 -404 -479 -873 -551 -1436 -31 -237 -38 -476 -33 -1075 5 -614
11 -717 58 -997 101 -605 359 -1137 730 -1505 549 -545 1327 -794 2341 -751
614 27 995 101 1463 286 239 94 658 313 793 415 19 15 13 28 -212 427 -128
226 -240 422 -248 434 l-15 23 -79 -51 c-354 -226 -790 -402 -1169 -473 -276
-51 -731 -75 -965 -51 -331 34 -620 138 -859 309 -435 310 -662 796 -688 1470
l-6 172 2207 0 2208 0 -5 638 c-3 515 -7 661 -21 762 -96 730 -330 1255 -746
1670 -409 410 -946 652 -1595 720 -109 11 -484 20 -580 14z m575 -1018 c232
-44 474 -144 638 -265 173 -128 327 -312 427 -512 129 -256 185 -531 185 -911
l0 -158 -1645 0 -1645 0 0 140 c0 322 53 571 176 830 230 481 661 796 1213
885 118 19 532 13 651 -9z"/>
<path d="M32335 10024 c-631 -42 -1145 -222 -1590 -557 -114 -86 -349 -324
-438 -444 -299 -404 -479 -873 -551 -1436 -31 -237 -38 -476 -33 -1075 5 -614
11 -717 58 -997 101 -605 359 -1137 730 -1505 549 -545 1327 -794 2341 -751
614 27 995 101 1463 286 239 94 658 313 793 415 19 15 13 28 -212 427 -128
226 -240 422 -248 434 l-15 23 -79 -51 c-354 -226 -790 -402 -1169 -473 -276
-51 -731 -75 -965 -51 -331 34 -620 138 -859 309 -435 310 -662 796 -688 1470
l-6 172 2207 0 2208 0 -5 638 c-3 515 -7 661 -21 762 -96 730 -330 1255 -746
1670 -409 410 -946 652 -1595 720 -109 11 -484 20 -580 14z m575 -1018 c232
-44 474 -144 638 -265 173 -128 327 -312 427 -512 129 -256 185 -531 185 -911
l0 -158 -1645 0 -1645 0 0 140 c0 322 53 571 176 830 230 481 661 796 1213
885 118 19 532 13 651 -9z"/>
<path d="M39660 10024 c-487 -35 -959 -182 -1254 -393 -160 -113 -341 -307
-443 -474 l-38 -62 -3 408 -2 407 -560 0 -560 0 0 -4565 0 -4565 580 0 580 0
0 1643 0 1642 27 -35 c49 -64 207 -221 288 -287 177 -144 403 -279 582 -347
436 -168 1133 -188 1688 -49 614 154 1097 501 1418 1021 230 371 363 791 418
1322 16 153 24 1433 10 1721 -29 623 -148 1091 -381 1498 -367 639 -949 1003
-1755 1096 -129 15 -489 26 -595 19z m320 -1038 c334 -61 615 -219 819 -461
267 -314 404 -707 441 -1260 13 -198 13 -1048 0 -1250 -41 -624 -214 -1060
-544 -1372 -221 -209 -490 -327 -828 -363 -259 -27 -550 3 -793 82 -121 39
-361 157 -475 233 -303 204 -506 464 -603 770 -48 154 -49 165 -45 1235 4
1002 4 1005 27 1105 75 330 204 569 436 801 273 274 597 432 1000 489 129 18
446 13 565 -9z"/>
<path d="M52586 10019 c-359 -21 -730 -96 -1023 -205 -230 -86 -612 -270 -838
-405 -167 -99 -315 -198 -315 -210 0 -5 127 -200 283 -434 l284 -425 102 65
c338 215 704 398 959 478 253 81 473 111 807 111 273 0 402 -13 573 -59 459
-123 704 -415 777 -925 8 -60 18 -229 22 -397 l6 -293 -884 0 c-886 0 -1132
-7 -1374 -36 -421 -50 -789 -173 -1059 -351 -125 -82 -323 -278 -416 -410
-162 -231 -258 -475 -307 -778 -26 -161 -26 -809 0 -969 95 -592 403 -1009
939 -1276 413 -205 958 -285 1563 -229 446 41 868 200 1180 443 135 105 307
297 353 393 9 18 19 33 24 33 4 0 8 -178 8 -395 l0 -395 555 0 555 0 -3 2443
c-3 2426 -3 2443 -24 2542 -64 309 -144 506 -303 744 -86 128 -247 306 -368
404 -213 174 -499 321 -801 412 -361 108 -813 152 -1275 124z m1632 -3964 c3
-317 -10 -611 -33 -731 -60 -315 -211 -525 -529 -738 -177 -118 -403 -216
-611 -264 -194 -45 -308 -56 -570 -57 -279 0 -386 14 -563 76 -352 124 -543
327 -597 634 -21 122 -20 450 1 576 72 419 345 670 817 750 191 33 310 36
1217 35 l865 -1 3 -280z"/>
<path d="M66545 10024 c-631 -42 -1145 -222 -1590 -557 -114 -86 -349 -324
-438 -444 -299 -404 -479 -873 -551 -1436 -31 -237 -38 -476 -33 -1075 5 -614
11 -717 58 -997 101 -605 359 -1137 730 -1505 549 -545 1327 -794 2341 -751
614 27 995 101 1463 286 239 94 658 313 793 415 19 15 13 28 -212 427 -128
226 -240 422 -248 434 l-15 23 -79 -51 c-354 -226 -790 -402 -1169 -473 -276
-51 -731 -75 -965 -51 -331 34 -620 138 -859 309 -435 310 -662 796 -688 1470
l-6 172 2207 0 2208 0 -5 638 c-3 515 -7 661 -21 762 -96 730 -330 1255 -746
1670 -409 410 -946 652 -1595 720 -109 11 -484 20 -580 14z m575 -1018 c232
-44 474 -144 638 -265 173 -128 327 -312 427 -512 129 -256 185 -531 185 -911
l0 -158 -1645 0 -1645 0 0 140 c0 322 53 571 176 830 230 481 661 796 1213
885 118 19 532 13 651 -9z"/>
<path d="M5534 9590 c-17 -7 -134 -185 -134 -205 0 -3 -8 -18 -19 -33 -10 -15
-57 -94 -105 -177 -48 -82 -91 -157 -97 -165 -5 -8 -12 -22 -16 -30 -4 -8 -45
-78 -91 -155 -46 -77 -88 -149 -93 -160 -5 -11 -19 -36 -30 -55 -72 -120 -176
-297 -182 -310 -4 -8 -17 -31 -28 -50 -12 -19 -57 -96 -100 -170 -44 -74 -84
-142 -89 -150 -6 -8 -13 -22 -17 -30 -4 -8 -31 -55 -61 -105 -30 -49 -58 -98
-63 -110 -5 -11 -18 -33 -29 -50 -11 -16 -24 -39 -30 -50 -11 -21 -22 -41
-101 -171 -27 -45 -49 -84 -49 -87 0 -4 -12 -23 -26 -44 -14 -21 -30 -47 -35
-58 -10 -21 -17 -34 -100 -171 -27 -45 -49 -85 -49 -89 0 -4 -13 -27 -30 -52
-16 -24 -30 -46 -30 -48 0 -2 -34 -60 -75 -128 -41 -69 -75 -128 -75 -132 0
-4 -13 -27 -30 -52 -16 -24 -30 -46 -30 -48 0 -2 -25 -46 -56 -97 -31 -50 -60
-101 -65 -113 -5 -11 -13 -27 -19 -35 -24 -38 -183 -307 -191 -325 -5 -11 -18
-33 -29 -50 -11 -16 -23 -36 -26 -43 -9 -18 13 -40 49 -48 18 -4 45 -12 62
-20 16 -7 48 -20 70 -29 118 -49 327 -166 414 -232 24 -18 50 -33 56 -33 11 0
101 144 185 295 12 22 58 100 101 172 44 73 79 135 79 137 0 3 37 67 83 143
46 76 97 164 114 195 30 54 92 160 304 521 55 92 99 169 99 172 0 2 31 56 69
119 65 107 81 134 148 254 14 26 36 63 48 82 21 33 115 195 158 270 10 19 50
87 87 150 172 293 240 409 265 455 16 28 63 109 105 180 42 72 127 218 190
325 62 107 123 211 136 232 25 39 23 43 -26 65 -186 84 -340 172 -480 278 -75
57 -100 71 -116 65z"/>
<path d="M8414 9547 c-28 -23 -61 -49 -74 -57 -12 -8 -39 -26 -59 -40 -45 -32
-174 -109 -221 -132 -108 -53 -165 -78 -177 -78 -25 0 -24 -27 2 -66 15 -22
31 -48 36 -59 5 -11 13 -27 19 -35 5 -8 50 -85 100 -170 49 -85 95 -162 100
-170 6 -8 13 -22 17 -30 7 -16 177 -306 193 -330 6 -8 13 -22 17 -30 4 -8 33
-59 65 -113 32 -54 58 -100 58 -102 0 -2 12 -21 26 -42 14 -21 30 -47 35 -58
5 -11 13 -27 19 -35 19 -29 130 -222 130 -225 0 -2 12 -21 26 -42 14 -21 30
-47 35 -58 5 -11 13 -27 19 -35 19 -29 130 -222 130 -225 0 -2 12 -21 26 -42
14 -21 30 -47 35 -58 5 -11 13 -27 19 -35 14 -22 95 -163 103 -180 4 -8 16
-28 27 -45 11 -16 24 -39 30 -50 6 -11 19 -33 30 -50 11 -16 24 -39 29 -51 5
-11 27 -50 48 -85 22 -35 42 -71 46 -79 4 -8 16 -28 27 -45 11 -16 24 -39 30
-50 5 -11 14 -27 20 -35 16 -24 125 -214 133 -230 4 -8 16 -28 27 -45 11 -16
23 -37 27 -45 4 -8 39 -69 78 -135 39 -66 74 -127 78 -135 4 -8 16 -28 27 -45
11 -16 23 -37 27 -45 4 -8 39 -69 78 -135 39 -66 74 -127 78 -135 4 -8 16 -28
27 -45 10 -16 29 -50 42 -74 12 -24 28 -46 35 -48 7 -3 30 8 50 24 106 81 377
229 457 249 14 3 29 10 32 15 3 5 15 9 27 9 12 0 35 7 51 15 15 8 39 15 52 15
32 0 34 37 3 42 -12 2 -26 10 -30 18 -5 8 -35 60 -67 115 -32 55 -61 107 -65
115 -4 8 -16 29 -27 45 -11 17 -23 37 -27 45 -8 17 -148 258 -163 280 -6 8
-13 22 -17 30 -8 16 -177 306 -193 330 -6 8 -13 22 -17 30 -4 8 -40 70 -80
138 -40 68 -73 126 -73 129 0 3 -13 25 -30 50 -16 24 -30 46 -30 47 0 2 -34
61 -75 131 -41 69 -75 129 -75 132 0 3 -13 25 -30 50 -16 24 -30 46 -30 47 0
2 -34 61 -75 131 -41 69 -75 128 -75 130 0 2 -40 71 -90 154 -49 83 -90 153
-90 155 0 3 -37 67 -83 143 -46 76 -98 164 -115 196 -18 32 -75 130 -127 218
-52 87 -95 161 -95 163 0 3 -38 68 -85 146 -47 78 -85 144 -85 147 0 3 -42 75
-94 161 -52 87 -105 177 -118 202 -32 63 -65 64 -134 7z"/>
<path d="M2470 5780 c-176 -18 -256 -29 -283 -39 -16 -6 -39 -11 -52 -11 -35
0 -269 -74 -355 -112 -96 -43 -187 -89 -235 -118 -27 -16 -57 -33 -65 -37 -82
-39 -260 -181 -390 -312 -166 -167 -311 -365 -402 -551 -48 -98 -78 -165 -78
-173 0 -5 -6 -23 -14 -40 -39 -87 -99 -318 -115 -442 -5 -38 -14 -83 -20 -98
-15 -38 -15 -397 0 -434 7 -15 18 -68 25 -118 7 -49 20 -117 28 -150 8 -33 20
-80 26 -105 12 -49 85 -250 105 -290 8 -14 28 -54 45 -90 186 -376 515 -716
885 -915 39 -21 77 -42 85 -46 146 -78 383 -152 630 -197 121 -21 521 -21 645
1 209 37 403 94 547 161 31 14 59 26 61 26 10 0 176 95 242 138 156 102 328
252 456 398 133 149 282 393 359 584 12 30 25 62 29 70 14 27 68 216 90 315
52 233 53 641 2 860 -34 145 -46 190 -73 270 -105 313 -273 581 -517 826 -150
149 -246 224 -446 346 -23 14 -221 112 -250 124 -305 124 -687 186 -965 159z
m320 -765 c212 -28 356 -78 545 -189 168 -99 370 -301 471 -471 155 -262 223
-561 194 -852 -25 -253 -96 -450 -236 -659 -129 -191 -344 -373 -566 -479
-387 -183 -831 -174 -1220 23 -506 257 -815 813 -758 1364 33 331 153 598 371
832 72 77 190 178 263 223 74 47 256 135 306 148 14 3 34 10 45 15 67 28 260
57 395 58 47 1 132 -5 190 -13z"/>
<path d="M11295 5784 c-238 -21 -451 -61 -543 -100 -18 -8 -39 -14 -47 -14 -8
0 -31 -7 -52 -16 -21 -9 -51 -22 -68 -28 -58 -24 -177 -79 -205 -96 -8 -5 -50
-29 -93 -54 -204 -120 -495 -382 -607 -546 -13 -19 -27 -37 -30 -40 -22 -20
-145 -223 -182 -300 -84 -175 -124 -290 -178 -515 -7 -27 -16 -83 -21 -122 -5
-40 -13 -108 -18 -150 -13 -100 -13 -248 -1 -343 6 -41 13 -100 16 -130 8 -81
45 -246 76 -335 5 -16 14 -43 18 -60 10 -36 37 -109 49 -133 4 -9 16 -35 26
-57 101 -230 247 -438 444 -635 168 -167 366 -311 551 -402 98 -48 165 -78
173 -78 5 0 23 -6 40 -14 85 -38 264 -85 427 -113 188 -32 598 -21 765 21 11
3 58 15 105 26 83 21 171 48 227 71 15 7 44 18 63 26 44 19 192 92 267 134
168 93 445 334 578 504 127 163 258 382 309 520 10 28 24 64 31 80 42 98 85
270 120 481 20 122 20 406 0 528 -38 225 -74 366 -130 511 -9 22 -19 49 -22
60 -15 45 -132 265 -178 335 -162 244 -357 445 -585 602 -127 87 -246 153
-366 203 -49 20 -98 41 -109 46 -59 26 -217 69 -335 92 -149 30 -411 51 -515
41z m260 -764 c315 -36 594 -172 821 -398 115 -114 245 -292 280 -382 3 -8 10
-23 15 -32 17 -34 69 -187 89 -263 27 -106 38 -309 25 -449 -7 -72 -18 -151
-24 -176 -79 -296 -196 -497 -407 -700 -233 -222 -504 -346 -838 -381 -169
-18 -366 6 -571 70 -34 10 -94 36 -180 76 -182 87 -410 290 -527 470 -76 117
-90 143 -147 275 -36 84 -68 214 -81 330 -48 422 84 825 368 1124 154 162 290
254 527 356 167 71 434 104 650 80z"/>
<path d="M4855 3693 c0 -186 -4 -368 -9 -405 l-9 -68 2162 0 c1919 0 2162 2
2167 15 4 8 0 46 -7 83 -15 75 -19 530 -6 645 l8 67 -2153 0 -2153 0 0 -337z"/>
</g>
</svg>
