<?xml version="1.0" standalone="no"?>
<!DOCTYPE svg PUBLIC "-//W3C//DTD SVG 20010904//EN"
 "http://www.w3.org/TR/2001/REC-SVG-20010904/DTD/svg10.dtd">
<svg version="1.0" xmlns="http://www.w3.org/2000/svg"
 width="437.000000pt" height="400.000000pt" viewBox="0 0 437.000000 400.000000"
 preserveAspectRatio="xMidYMid meet">

<g transform="translate(0.000000,400.000000) scale(0.100000,-0.100000)"
fill="#000000" stroke="none">
<path d="M2105 3994 c-11 -2 -45 -9 -75 -15 -256 -51 -474 -269 -541 -539 -18
-71 -18 -249 0 -320 67 -270 271 -474 541 -541 30 -8 102 -14 160 -14 58 0
130 6 160 14 228 56 415 215 503 427 39 94 52 161 52 274 0 58 -6 130 -14 160
-65 262 -263 466 -520 535 -57 15 -229 28 -266 19z m155 -254 c249 -39 428
-281 390 -527 -59 -383 -535 -532 -796 -251 -274 297 -83 757 326 787 8 0 44
-4 80 -9z"/>
<path d="M1672 2678 c-31 -51 -687 -1180 -700 -1204 -11 -20 -6 -24 71 -62 45
-23 94 -49 109 -58 15 -10 29 -16 32 -14 2 3 167 284 365 624 l361 620 -70 37
c-38 20 -85 48 -104 63 -19 14 -37 26 -40 26 -2 0 -13 -15 -24 -32z"/>
<path d="M2643 2683 c-18 -14 -64 -42 -103 -62 l-70 -37 361 -619 c198 -341
362 -621 364 -623 2 -3 17 5 33 17 37 26 172 91 190 91 10 0 10 3 1 13 -6 6
-172 289 -369 627 -196 338 -361 615 -366 617 -5 1 -24 -10 -41 -24z"/>
<path d="M635 1434 c-11 -2 -45 -9 -75 -15 -256 -51 -474 -269 -541 -539 -18
-71 -18 -249 0 -320 67 -270 271 -474 541 -541 71 -18 249 -18 320 0 228 56
415 215 503 427 39 94 52 161 52 274 0 58 -6 130 -14 160 -65 262 -263 466
-520 535 -57 15 -229 28 -266 19z m155 -254 c249 -39 428 -281 390 -527 -59
-383 -535 -532 -796 -251 -274 297 -83 757 326 787 8 0 44 -4 80 -9z"/>
<path d="M3565 1434 c-11 -2 -45 -9 -75 -15 -214 -43 -415 -212 -503 -425 -39
-94 -52 -161 -52 -274 0 -113 13 -180 52 -274 88 -212 275 -371 503 -427 71
-18 249 -18 320 0 228 56 415 215 503 427 39 94 52 161 52 274 0 58 -6 130
-14 160 -65 262 -263 466 -520 535 -57 15 -229 28 -266 19z m155 -254 c249
-39 428 -281 390 -527 -59 -383 -535 -532 -796 -251 -274 297 -83 757 326 787
8 0 44 -4 80 -9z"/>
<path d="M1470 738 c0 -62 -3 -123 -6 -135 l-6 -23 727 0 727 0 -6 23 c-3 12
-6 73 -6 135 l0 112 -715 0 -715 0 0 -112z"/>
</g>
</svg>
